<?xml version="1.0" encoding="UTF-8" standalone="no"?>
<svg
   xmlns:dc="http://purl.org/dc/elements/1.1/"
   xmlns:cc="http://creativecommons.org/ns#"
   xmlns:rdf="http://www.w3.org/1999/02/22-rdf-syntax-ns#"
   xmlns:svg="http://www.w3.org/2000/svg"
   xmlns="http://www.w3.org/2000/svg"
   xmlns:sodipodi="http://sodipodi.sourceforge.net/DTD/sodipodi-0.dtd"
   xmlns:inkscape="http://www.inkscape.org/namespaces/inkscape"
   width="115.60189mm"
   height="115.60189mm"
   viewBox="0 0 409.61303 409.613"
   id="svg2"
   version="1.1"
   sodipodi:docname="boa3COptimized.svg"
   inkscape:version="0.92.5 (2060ec1f9f, 2020-04-08)"
   inkscape:export-filename="/home/igal/Documents/igorwork/docs/boa/site/boa/pics/googleAd/boa3COptimized.png"
   inkscape:export-xdpi="139.57001"
   inkscape:export-ydpi="139.57001">
  <sodipodi:namedview
     pagecolor="#ffffff"
     bordercolor="#666666"
     borderopacity="1"
     objecttolerance="10"
     gridtolerance="10"
     guidetolerance="10"
     inkscape:pageopacity="0"
     inkscape:pageshadow="2"
     inkscape:window-width="1920"
     inkscape:window-height="1016"
     id="namedview12"
     showgrid="false"
     inkscape:zoom="0.79419477"
     inkscape:cx="218.46027"
     inkscape:cy="144.636"
     inkscape:window-x="0"
     inkscape:window-y="27"
     inkscape:window-maximized="1"
     inkscape:current-layer="svg2" />
  <defs
     id="defs4" />
  <metadata
     id="metadata7">
    <rdf:RDF>
      <cc:Work
         rdf:about="">
        <dc:format>image/svg+xml</dc:format>
        <dc:type
           rdf:resource="http://purl.org/dc/dcmitype/StillImage" />
        <dc:title></dc:title>
      </cc:Work>
    </rdf:RDF>
  </metadata>
  <text
     xml:space="preserve"
     style="font-style:normal;font-variant:normal;font-weight:normal;font-stretch:normal;font-size:30.00000191px;line-height:1.25;font-family:sans-serif;-inkscape-font-specification:'sans-serif, Normal';font-variant-ligatures:normal;font-variant-caps:normal;font-variant-numeric:normal;font-feature-settings:normal;text-align:center;letter-spacing:0px;word-spacing:0px;writing-mode:lr-tb;direction:ltr;text-anchor:middle;fill:#000000;fill-opacity:1;stroke:none;stroke-width:0.93750006"
     x="204.68932"
     y="330.24936"
     id="text16"><tspan
       sodipodi:role="line"
       x="209.45738"
       y="330.24936"
       style="text-align:center;text-anchor:middle;fill:#4d4d4d;stroke-width:0.93750006;-inkscape-font-specification:'sans-serif Bold';font-family:sans-serif;font-weight:bold;font-style:normal;font-stretch:normal;font-variant:normal"
       id="tspan18">Algorithm development </tspan><tspan
       sodipodi:role="line"
       x="204.68932"
       y="367.74936"
       style="text-align:center;text-anchor:middle;fill:#4d4d4d;stroke-width:0.93750006;-inkscape-font-specification:'sans-serif Bold';font-family:sans-serif;font-weight:bold;font-style:normal;font-stretch:normal;font-variant:normal"
       id="tspan20">services</tspan></text>
  <g
     id="layer1"
     transform="translate(-149.45398,-159.56685)">
    <path
       id="path4153"
       style="font-style:normal;font-weight:normal;font-size:medium;line-height:125%;font-family:sans-serif;text-align:end;letter-spacing:0px;word-spacing:0px;writing-mode:lr-tb;text-anchor:end;fill:#05a000;fill-opacity:1;stroke:#05a000;stroke-width:9.37968826;stroke-linecap:butt;stroke-linejoin:miter;stroke-miterlimit:4;stroke-dasharray:none;stroke-opacity:1"
       d="m 489.11141,230.45145 -25.29666,68.59642 h 50.68565 z m -10.52489,-18.37239 h 21.1421 l 52.53212,137.8391 H 532.87279 L 520.31678,314.55823 H 458.18301 L 445.627,349.91816 h -19.66492 z"
       inkscape:connector-curvature="0" />
    <path
       id="path4151"
       style="font-style:normal;font-weight:normal;font-size:medium;line-height:125%;font-family:sans-serif;text-align:end;letter-spacing:0px;word-spacing:0px;writing-mode:lr-tb;text-anchor:end;fill:#05a000;fill-opacity:1;stroke:#05a000;stroke-width:1.87500012;stroke-linecap:butt;stroke-linejoin:miter;stroke-miterlimit:4;stroke-dasharray:none;stroke-opacity:1"
       d="m 347.63739,353.77334 c 17.22103,0 30.84129,-6.41875 40.8608,-19.25624 10.09779,-12.8375 15.14668,-30.29336 15.14668,-52.36759 0,-22.15251 -5.04889,-39.64751 -15.14668,-52.485 -10.01951,-12.83749 -23.63977,-19.25624 -40.8608,-19.25624 -17.22103,0 -34.45511,7.68144 -44.63117,20.51893 -10.09779,12.83749 -12.99062,24.13913 -20.23334,47.01582 0,0 -3.04444,11.69443 -10.45106,9.21692 -7.40663,-2.4775 -10.3285,-17.80338 -10.3285,-17.80338 -0.58592,-0.38513 -1.49537,-0.5372 -1.62386,-1.15124 -4.13596,-19.76588 4.13351,-19.36845 12.87826,-27.903 6.08329,-5.93705 7.73756,-10.05565 13.99259,-17.73771 14.79443,-16.51653 35.73969,-31.41258 60.39708,-31.41258 24.5791,0 44.22673,8.25827 58.94288,24.7748 14.71615,16.43825 22.07423,38.51248 22.07423,66.22268 0,27.63193 -7.35808,49.70616 -22.07423,66.22269 -14.71615,16.43825 -34.36378,24.65738 -58.94288,24.65738 -24.65739,0 -44.38329,-8.21913 -59.17772,-24.65738 -6.99834,-10.05142 -9.24628,-27.47008 -8.99167,-41.68111 0.24523,-13.68726 10.09277,-39.80888 10.09277,-39.80888 0,0 -0.72697,9.04051 1.03005,37.92145 0.47602,7.82458 4.44862,22.08563 11.91032,29.71344 11.43841,11.69306 27.91522,19.25624 45.13625,19.25624 z"
       inkscape:connector-curvature="0" />
    <path
       id="path4149"
       style="font-style:normal;font-weight:normal;font-size:medium;line-height:125%;font-family:sans-serif;text-align:end;letter-spacing:0px;word-spacing:0px;writing-mode:lr-tb;text-anchor:end;fill:#05a000;fill-opacity:1;stroke:#05a000;stroke-width:9.37968826;stroke-linecap:butt;stroke-linejoin:miter;stroke-miterlimit:4;stroke-dasharray:none;stroke-opacity:1"
       d="m 172.79318,284.09145 v 50.50101 h 29.91283 q 15.04874,0 22.24999,-6.18569 7.29355,-6.27801 7.29355,-19.11098 0,-12.92531 -7.29355,-19.01865 -7.20125,-6.18569 -22.24999,-6.18569 z m 0,-56.68667 v 41.54561 h 27.60475 q 13.66389,0 20.31119,-5.0778 6.73962,-5.17011 6.73962,-15.69501 0,-10.43257 -6.73962,-15.60269 -6.6473,-5.17011 -20.31119,-5.17011 z m -18.64936,-15.32572 h 47.63896 q 21.32675,0 32.86719,8.86306 11.54046,8.86307 11.54046,25.20434 0,12.64833 -5.90873,20.12654 -5.9087,7.4782 -17.35682,9.32469 13.75622,2.95435 21.32675,12.37135 7.66286,9.32469 7.66286,23.35787 0,18.46471 -12.55602,28.52799 -12.55601,10.06326 -35.72921,10.06326 h -49.48544 z"
       inkscape:connector-curvature="0" />
    <path
       d="m 215.38118,176.0293 c 0.0274,0.0594 0.0548,0.1189 0.0824,0.17834 0.011,0.0238 0.01,0.0215 0.021,0.0453 -0.005,-0.0103 0.0875,0.18859 0.0827,0.17824 v 0 c 0.1078,0.23187 0.21667,0.46407 0.32661,0.69611 0,0 1e-5,1e-5 1e-5,1e-5 v 0 c 0.42006,0.88661 0.85678,1.77395 1.30923,2.65906 0,0 1e-5,1e-5 1e-5,1e-5 0,0 0,0 0,0 1.46547,2.86685 3.10422,5.72736 4.88433,8.57494 0.21922,0.35052 0.44066,0.70093 0.66423,1.05123 0,0 1e-5,1e-5 1e-5,1e-5 0,0 0,0 0,0 0,0 0,0 0,0 5.79333,9.07685 13.083,18.14702 20.83018,27.34894 1.01516,1.20599 2.03961,2.41581 3.07013,3.62857 0,0 1e-5,0 1e-5,0 0,0 0,1e-5 0,1e-5 0,0 0,0 0,0 8.52286,10.03044 17.51787,20.25695 25.49665,31.17138 1.79436,2.4544 3.5343,4.9386 5.20507,7.45973 0,0 0,0 0,0 0,0 1e-5,2e-5 1e-5,2e-5 0,0 0,0 0,0 2.11321,3.18886 4.11182,6.43515 5.92179,9.75007 0,0 0,10e-6 0,10e-6 1.75005,3.20465 3.32096,6.46715 4.64902,9.80057 0,0 0,0 0,0 0.77966,1.95783 1.47803,3.94185 2.06303,5.94612 1.15756,3.9778 1.86651,8.03443 1.88572,12.12832 0,0 0,0 0,0 0.0137,2.64801 -0.25897,5.28633 -0.75486,7.90386 -0.6679,3.5278 -1.73903,7.00825 -3.05298,10.4114 0,0 0,0 0,0 -1.56169,4.04299 -3.47494,7.98057 -5.63,11.83469 -1.51412,2.70809 -3.14602,5.37162 -4.85562,7.99634 0,1e-5 0,1e-5 0,1e-5 -8.13473,12.48879 -17.89744,23.96762 -27.4171,35.21415 -1.11836,1.32114 -2.23045,2.63562 -3.33568,3.94763 0,0 -1e-5,2e-5 -1e-5,2e-5 -8.59096,10.19775 -16.81521,20.22363 -23.28193,30.20527 0,0 -1e-5,1e-5 -1e-5,1e-5 -0.25214,0.38918 -0.50173,0.77846 -0.74869,1.16786 -1.98333,3.12723 -3.80245,6.2693 -5.41562,9.41694 -0.0547,0.10668 -0.10911,0.21337 -0.16332,0.32008 -0.44059,0.86728 -0.86629,1.73656 -1.27624,2.60506 0,1e-5 -0.0393,0.0834 -0.0393,0.0834 -0.10713,0.22748 -0.21327,0.45508 -0.31842,0.68234 0,10e-6 -0.0141,0.0253 -0.0141,0.0253 -10e-4,0.002 -0.051,0.0914 -0.0521,0.0934 m 10.68211,-248.83216 c 0.0244,0.0557 0.0485,0.11091 0.0723,0.16573 2.9e-4,6.7e-4 0.0177,0.041 0.018,0.0417 0.0235,0.0546 0.0466,0.10871 0.0693,0.16247 -0.0476,-0.11116 0.31752,0.74173 0.26996,0.63057 0.34195,0.7977 0.6972,1.59508 1.06422,2.38873 0,0 0,1e-5 0,1e-5 1.18893,2.57079 2.53779,5.14855 4.01472,7.72537 0.17913,0.32004 0.3602,0.64025 0.54316,0.96059 0,0 0,0 0,0 0,0 10e-6,1e-5 10e-6,1e-5 4.73529,8.28977 10.85112,16.82122 17.3839,25.69199 0.93675,1.26227 1.66277,2.23918 2.59952,3.50146 0,0 1e-5,0 1e-5,0 7.22645,9.72011 14.83714,20.04509 21.59685,31.63605 1.51291,2.60308 2.97379,5.28718 4.37103,8.06207 1e-5,0 1e-5,0 1e-5,1e-5 1.77188,3.51271 3.43987,7.20069 4.94221,11.08004 0,0 0,1e-5 0,1e-5 1.42992,3.73194 2.73906,7.744 3.88,12.05222 0.68155,2.52169 1.295,5.17499 1.81344,7.95484 1.12695,5.34335 1.88389,10.79838 2.04886,16.3168 0,0 0,0 0,0 0.0537,3.56394 -0.13852,6.9821 -0.52311,10.24278 -0.53887,4.40495 -1.46324,8.58236 -2.63225,12.50688 -1.36534,4.67941 -3.03193,9.12036 -4.90539,13.34581 -1.31996,2.9664 -2.74009,5.84299 -4.22526,8.63619 0,0 0,10e-6 -10e-6,10e-6 -7.05696,13.29421 -15.48016,25.01924 -23.64047,36.03335 -0.80475,1.08921 -2.04567,2.76561 -2.85042,3.85481 0,0 -1e-5,10e-6 -1e-5,10e-6 -7.32639,9.93141 -14.28702,19.46595 -19.58976,28.67555 0,0 0,1e-5 0,1e-5 -0.20696,0.35958 -0.41145,0.71895 -0.61341,1.07813 -1.62218,2.88543 -3.09073,5.77116 -4.36743,8.64543 -0.0433,0.0974 -0.0863,0.19484 -0.12907,0.2923 -0.34763,0.79215 -0.68163,1.58949 -1.00122,2.38905 -0.0102,0.0256 -0.0204,0.0512 -0.0306,0.0768 -0.0832,0.20974 -0.16569,0.42212 -0.24745,0.63676 2e-5,-1e-5 0.16028,-0.13808 0.1603,-0.1381 6.5e-4,-5.6e-4 0.58913,-0.50626 0.58978,-0.50682 m 10.07566,-257.8699 c 0.0212,0.0511 0.0418,0.10156 0.0619,0.15135 0.005,0.0126 0.0101,0.0252 0.0151,0.0378 0.0197,0.0494 0.0387,0.0982 0.0571,0.14627 0.0745,0.19054 0.14759,0.37883 0.21929,0.5651 0.2738,0.71123 0.55858,1.42209 0.85231,2.12876 0,0 0,1e-5 0,1e-5 0.95164,2.2892 2.05054,4.59861 3.26519,6.91907 0.14501,0.29037 0.29175,0.58115 0.44014,0.87231 0,0 0,1e-5 0,1e-5 0,0 0,0 0,0 3.83476,7.52278 8.93051,15.50994 14.39874,24.01388 0.72326,1.10823 1.45162,2.2276 2.18556,3.36223 0,0 1e-5,0 1e-5,1e-5 6.07772,9.36481 12.48236,19.68722 18.15789,31.72908 1.26514,2.70297 2.48113,5.52726 3.63889,8.48481 0,0 0,1e-5 0,1e-5 1.47242,3.74588 2.85165,7.75921 4.08599,12.05969 0,0 0,0 0,0 1.15355,4.12503 2.23435,8.70207 3.20899,13.7493 0,0 0,0 0,0 0.59292,2.94912 1.12956,6.111 1.58754,9.48134 1.08476,6.38224 1.86858,12.90226 2.14697,19.50523 0.0855,4.26124 -0.0393,8.27217 -0.329,12.02056 -0.42708,5.07024 -1.21946,9.77378 -2.25354,14.08943 -1.18653,5.15711 -2.6298,9.97227 -4.24889,14.46917 -1.14406,3.15512 -2.37283,6.18491 -3.65548,9.09618 0,0 -1e-5,1e-5 -1e-5,1e-5 -6.0836,13.85911 -13.311,25.69618 -20.25781,36.42604 -0.81341,1.26278 -1.62137,2.51184 -2.41932,3.74512 0,0 0,2e-5 0,2e-5 -6.20523,9.62217 -12.05139,18.64989 -16.3498,27.10387 0,0 -1e-5,10e-6 -1e-5,10e-6 -0.16794,0.33055 -0.33354,0.66061 -0.49674,0.99019 -1.31103,2.64825 -2.4796,5.28135 -3.47081,7.88515 -0.0336,0.0882 -0.0669,0.1765 -0.10004,0.26479 -0.26893,0.7176 -0.52542,1.44178 -0.76874,2.16921 -0.008,0.0233 -0.0156,0.0466 -0.0233,0.07 -0.0631,0.19101 -0.12564,0.38615 -0.18765,0.58501 4e-5,-3e-5 0.26441,-0.2359 0.26444,-0.23593 8.2e-4,-7.2e-4 0.97184,-0.86509 0.97266,-0.86582 m 9.71139,-262.71473 c 0.0179,0.0461 0.0351,0.0914 0.0516,0.13598 0.004,0.0113 0.008,0.0226 0.0124,0.0338 0.0161,0.0441 0.0314,0.0875 0.0459,0.1301 0.0601,0.16951 0.11836,0.33658 0.17473,0.50119 0.2153,0.62855 0.44007,1.25747 0.67182,1.88252 0,0 0,1e-5 0,1e-5 0.75098,2.02492 1.63701,4.08299 2.6271,6.1638 0.11633,0.26198 0.23416,0.5246 0.35343,0.78782 0,0 0,0 0,0 0,0 0,1e-5 0,1e-5 3.07615,6.78751 7.29071,14.24004 11.82938,22.35751 0.60323,1.05596 1.21094,2.12723 1.82284,3.21693 0,0 0,1e-5 0,1e-5 5.06866,8.98835 10.415,19.22172 15.13359,31.53842 1.04752,2.7637 2.04903,5.67972 2.99761,8.76205 0,0 0,1e-5 0,1e-5 1.21036,3.90522 2.3378,8.14833 3.33932,12.75205 0,0 0,1e-5 0,1e-5 0.91565,4.40765 1.79773,9.39727 2.62494,14.9884 0,0 0,0 0,0 0.5131,3.26365 0.98049,6.80102 1.38375,10.60847 1.03426,7.15044 1.82817,14.45918 2.19299,21.8649 0.11035,4.77734 0.0419,9.2261 -0.16732,13.33355 -0.33053,5.56022 -1.00452,10.64869 -1.91367,15.24812 -1.02428,5.50392 -2.26591,10.58706 -3.6559,15.27374 -0.98517,3.28693 -2.0415,6.42116 -3.14192,9.40971 -1e-5,0 -1e-5,0 -1e-5,1e-5 -5.20833,14.23043 -11.36809,26.07326 -17.23693,36.48725 -0.68658,1.22685 -1.36694,2.43554 -2.03776,3.62518 0,0 -1e-5,1e-5 -1e-5,1e-5 -5.2153,9.28794 -10.08313,17.8077 -13.52331,25.53586 0,0 -1e-5,1e-5 -1e-5,1e-5 -0.13457,0.30262 -0.26694,0.60448 -0.39707,0.90559 -1.04556,2.41991 -1.96035,4.80883 -2.71272,7.15043 -0.0255,0.0794 -0.0508,0.15871 -0.0758,0.23809 -0.20323,0.64517 -0.3952,1.29687 -0.57516,1.9514 -0.006,0.0209 -0.0115,0.0419 -0.0172,0.063 -0.0464,0.17198 -0.0925,0.34872 -0.13805,0.52976 5e-5,-5e-5 0.31301,-0.28189 0.31306,-0.28194 9.3e-4,-8.4e-4 1.14989,-1.03332 1.15083,-1.03417 m 9.53927,-264.31249 c 0.0147,0.0409 0.0286,0.081 0.0419,0.12028 0.003,0.01 0.007,0.0199 0.01,0.0298 0.0128,0.0389 0.0249,0.077 0.0362,0.1144 0.0474,0.1491 0.0928,0.29586 0.13631,0.44014 0.16603,0.55092 0.34057,1.10347 0.52082,1.65307 0,0 0,10e-6 0,10e-6 0.58416,1.78056 1.2914,3.60661 2.09142,5.46657 0.0925,0.2353 0.18626,0.47144 0.28127,0.7084 0,0 0,1e-5 0,1e-5 0,0 0,0 0,0 2.44386,6.09382 5.90182,13.0365 9.63107,20.76171 0.49851,1.0043 1.00065,2.02702 1.50596,3.07104 0,1e-5 0,1e-5 0,1e-5 4.1858,8.6074 8.60259,18.68823 12.4786,31.14379 0.85661,2.79397 1.67046,5.76357 2.43653,8.9247 0,0 0,1e-5 0,1e-5 0.9813,4.00595 1.88941,8.4023 2.68897,13.21437 0,0 0,1e-5 0,1e-5 0.71118,4.60128 1.42055,9.88048 2.11732,15.8572 0.44139,3.48666 0.8465,7.29149 1.20041,11.41144 0.97833,7.69876 1.76941,15.57182 2.1986,23.55127 0.12946,5.14622 0.10783,9.90703 -0.0332,14.26921 -0.24729,5.90801 -0.81533,11.26714 -1.60931,16.06371 -0.87744,5.7451 -1.93742,11.01086 -3.12151,15.82215 -0.842,3.3733 -1.74325,6.57331 -2.68004,9.60707 0,0 0,10e-6 0,10e-6 -4.42322,14.44977 -9.63061,26.21947 -14.54512,36.3033 -0.57439,1.18865 -1.14235,2.35587 -1.70112,3.50096 0,0 -10e-6,1e-5 -10e-6,1e-5 -4.34432,8.94496 -8.35709,16.96856 -11.0714,24.01298 0,0 -1e-5,0 -1e-5,0 -0.1063,0.27624 -0.21057,0.55148 -0.31278,0.82571 -0.82143,2.20423 -1.52427,4.36175 -2.08007,6.45428 -0.0188,0.0709 -0.0375,0.14181 -0.0558,0.21271 -0.14932,0.57625 -0.28851,1.15792 -0.41682,1.74093 -0.004,0.0187 -0.008,0.0374 -0.0122,0.0561 -0.0329,0.15323 -0.0655,0.31121 -0.0977,0.4734 6e-5,-6e-5 0.31943,-0.28852 0.31949,-0.28858 10e-4,-9.3e-4 1.17254,-1.05679 1.17357,-1.05773 m 9.51376,-263.51679 c 0.0116,0.0356 0.0226,0.0706 0.0329,0.10488 0.003,0.009 0.005,0.0174 0.008,0.026 0.01,0.0339 0.0192,0.0671 0.0277,0.0996 0.0364,0.1298 0.0711,0.25757 0.10395,0.38315 0.12545,0.47945 0.25887,0.9621 0.39717,1.44314 0,0 0,0 0,0 0.44826,1.55843 1.00763,3.1739 1.6487,4.83364 0.0729,0.2107 0.14691,0.42245 0.22195,0.6352 0,0 0,0 0,0 0,0 0,1e-5 0,1e-5 1.92207,5.44871 4.73467,11.92343 7.7596,19.26122 0.40728,0.95469 0.81732,1.93023 1.2296,2.92947 0,0 10e-6,0 10e-6,0 3.41476,8.23598 7.01426,18.12324 10.14845,30.61672 0.68904,2.80159 1.3386,5.79584 1.94535,9.00054 0,0 0,1e-5 0,1e-5 0.781,4.06171 1.49795,8.55186 2.12224,13.49805 10e-6,0 10e-6,1e-5 10e-6,1e-5 0.53535,4.72488 1.09468,10.19767 1.67609,16.43443 0.37706,3.63734 0.7263,7.6241 1.03581,11.95777 0.91948,8.07283 1.69829,16.33239 2.17422,24.70397 0.14402,5.39837 0.16133,10.37161 0.0781,14.90601 -0.17549,6.14337 -0.64881,11.68305 -1.33697,16.60876 -0.74479,5.90331 -1.64132,11.28507 -2.64054,16.17058 -0.71313,3.42459 -1.47506,6.66079 -2.26506,9.71549 0,0 0,2e-5 0,2e-5 -3.71973,14.55414 -8.07779,26.19707 -12.14925,35.95172 -0.47536,1.15017 -0.94441,2.2764 -1.40471,3.37785 0,0 0,1e-5 0,1e-5 -3.57986,8.60786 -6.84808,16.15883 -8.95502,22.57253 0,0 -10e-6,1e-5 -10e-6,1e-5 -0.0826,0.25183 -0.16336,0.50244 -0.24227,0.75182 -0.63428,2.00462 -1.16263,3.94743 -1.55973,5.8084 -0.0135,0.063 -0.0267,0.12609 -0.0398,0.1891 -0.10595,0.51208 -0.20288,1.02775 -0.29005,1.54258 -0.003,0.0165 -0.006,0.033 -0.008,0.0495 -0.0222,0.13529 -0.0441,0.27487 -0.0657,0.41811 7e-5,-7e-5 0.29566,-0.26698 0.29573,-0.26705 0.001,-0.001 1.08402,-0.97668 1.08513,-0.97768 m 9.59402,-261.08896 c 0.009,0.0307 0.0172,0.0608 0.025,0.0903 0.002,0.007 0.004,0.015 0.006,0.0224 0.007,0.0292 0.0144,0.0579 0.0207,0.0859 0.0272,0.11204 0.0531,0.22254 0.0775,0.33129 0.093,0.4151 0.19356,0.83514 0.29851,1.25512 0,0 0,1e-5 0,1e-5 0.34017,1.36053 0.7793,2.7887 1.28908,4.27045 0.057,0.18855 0.11497,0.37832 0.17375,0.56924 0,0 0,1e-5 0,1e-5 0,0 0,0 0,0 1.49372,4.85199 3.76185,10.92854 6.17131,17.88671 0.32778,0.90847 0.65745,1.83971 0.98849,2.79655 0,0 0,1e-5 0,1e-5 2.74099,7.88619 5.62001,17.55926 8.0995,30.02053 0.54157,2.79349 1.04691,5.79164 1.51418,9.01417 0,0 0,10e-6 0,10e-6 0.60533,4.08461 1.15521,8.62429 1.62701,13.64866 0,0 0,1e-5 0,1e-5 0.38342,4.79137 0.81265,10.39352 1.29167,16.78991 0.3194,3.73272 0.61857,7.83584 0.88825,12.30736 0.85977,8.31306 1.61991,16.82269 2.12899,25.44673 0.15507,5.56085 0.20488,10.6701 0.17071,15.31357 -0.11335,6.29265 -0.5019,11.94419 -1.09303,16.94753 -0.62494,5.99865 -1.37432,11.44636 -2.20746,16.36885 -0.59709,3.44993 -1.2338,6.70079 -1.89202,9.75911 0,-10e-6 -10e-6,1e-5 -10e-6,1e-5 -3.08888,14.57626 -6.68867,26.06145 -10.01564,35.50133 -0.38801,1.11308 -0.77002,2.20041 -1.14384,3.26061 0,1e-5 0,1e-5 0,1e-5 -2.90931,8.28956 -5.53084,15.40196 -7.13493,21.24768 0,0 0,10e-6 0,10e-6 -0.0629,0.22978 -0.12425,0.45812 -0.18392,0.68504 -0.47976,1.82417 -0.86667,3.57242 -1.13854,5.2232 -0.009,0.0559 -0.0183,0.11183 -0.0271,0.16766 -0.0719,0.45379 -0.13582,0.90891 -0.19116,1.36061 -0.002,0.0145 -0.004,0.0289 -0.005,0.0435 -0.0139,0.11865 -0.0276,0.24081 -0.041,0.3658 7e-5,-6e-5 0.25236,-0.22718 0.25244,-0.22724 10e-4,-10e-4 0.92357,-0.8295 0.92471,-0.83053 m 9.7436,-257.69805 c 0.006,0.0261 0.0126,0.0518 0.0183,0.077 0.001,0.006 0.003,0.0128 0.004,0.0192 0.005,0.025 0.0104,0.0496 0.015,0.0737 0.0198,0.0962 0.0387,0.19142 0.0565,0.28543 0.0679,0.35876 0.14309,0.72415 0.22226,1.09113 0,0 0,1e-5 0,1e-5 0.25662,1.18863 0.59976,2.4544 1.00232,3.78177 0.0443,0.16912 0.0893,0.3396 0.13496,0.51139 0,0 0,0 0,0 0,0 0,1e-5 0,1e-5 1.18469,4.45779 2.9122,9.92913 4.82312,16.66478 0.25827,0.86682 0.51756,1.75787 0.77738,2.67605 0,0 0,1e-5 0,1e-5 2.14993,7.56853 4.39038,17.02464 6.28896,29.41035 0.41106,2.77571 0.78902,5.76414 1.13344,8.98705 0,0 1e-5,1e-5 1e-5,1e-5 0.45039,4.0852 0.85337,8.64337 1.19169,13.70593 0,0 0,1e-5 0,1e-5 0.25279,4.8391 0.56561,10.47995 0.95502,16.98455 0.26764,3.78762 0.52191,7.95897 0.75591,12.51243 0.80089,8.45465 1.53859,17.11408 2.07081,25.88747 0.16358,5.65722 0.24081,10.84628 0.2487,15.55253 -0.0591,6.37882 -0.37153,12.09218 -0.87369,17.13604 -0.51639,6.04862 -1.13296,11.52673 -1.81644,16.46039 -0.49235,3.45727 -1.01619,6.70831 -1.55579,9.75894 0,0 0,2e-5 0,2e-5 -2.52145,14.54456 -5.44201,25.86093 -8.1102,35.01213 -0.31077,1.07881 -0.61608,2.13082 -0.91379,3.15345 0,10e-6 0,10e-6 0,10e-6 -2.31996,8.00121 -4.3801,14.71859 -5.57175,20.06743 0,1e-5 0,1e-5 0,1e-5 -0.0468,0.21039 -0.0922,0.41917 -0.13611,0.62635 -0.35349,1.66552 -0.62763,3.24242 -0.80332,4.70781 -0.006,0.0496 -0.0118,0.0992 -0.0174,0.14874 -0.0458,0.40232 -0.0849,0.80356 -0.11645,1.19871 -0.001,0.0127 -0.002,0.0253 -0.003,0.038 -0.008,0.10371 -0.0154,0.21002 -0.0227,0.31818 8e-5,-7e-5 0.1988,-0.17777 0.19888,-0.17784 10e-4,-10e-4 0.72542,-0.64707 0.72655,-0.64808 m 9.93088,-253.92088 c 0.005,0.0221 0.009,0.0439 0.0128,0.0655 10e-4,0.005 0.002,0.0109 0.003,0.0164 0.004,0.0214 0.007,0.0425 0.0106,0.0633 0.0141,0.0827 0.0278,0.16484 0.0407,0.24638 0.0493,0.31111 0.10572,0.63044 0.16564,0.95291 0,0 0,1e-5 0,1e-5 0.19417,1.04416 0.46201,2.17383 0.77774,3.37154 0.0341,0.15266 0.0688,0.30683 0.10392,0.4624 0,0 0,0 0,0 0,0 0,0 0,0 0.91116,4.03712 2.22882,9.15936 3.67241,15.61796 0.19705,0.83073 0.39423,1.68679 0.5911,2.57116 0,0 0,0 0,0 1.62721,7.29191 3.29653,16.54342 4.67493,28.83311 0.29444,2.75342 0.5588,5.72453 0.79395,8.93748 0,0 0,0 0,0 0.3124,4.07248 0.58496,8.62938 0.80529,13.70379 0,1e-5 0,1e-5 0,1e-5 0.13718,4.84629 0.34907,10.52157 0.65754,17.07032 0.221,3.81473 0.43494,8.02099 0.63696,12.61755 0.74412,8.5275 1.45785,17.26759 2.00629,26.11823 0.17044,5.70757 0.27127,10.9375 0.31577,15.67461 -0.0112,6.42149 -0.25472,12.16255 -0.67503,17.22207 -0.41755,6.06816 -0.91353,11.55345 -1.46137,16.48223 -0.39726,3.4534 -0.81881,6.69615 -1.25099,9.73295 0,0 0,0 0,1e-5 -2.00791,14.48329 -4.31618,25.6369 -6.39826,34.53543 -0.0542,0.23486 -0.65558,2.82508 -0.70981,3.05994 0,0 0,10e-6 0,10e-6 -1.79904,7.75231 -3.37047,14.12641 -4.22596,19.05662 0,0 0,1e-5 0,1e-5 -0.0336,0.19395 -0.066,0.38614 -0.0972,0.57659 -0.25113,1.53098 -0.43674,2.96231 -0.54085,4.27001 -0.004,0.0443 -0.007,0.0885 -0.0102,0.13264 -0.0265,0.35852 -0.0475,0.71362 -0.0622,1.06006 -4.7e-4,0.0111 -9.2e-4,0.0222 -10e-4,0.0333 -0.004,0.0908 -0.007,0.1833 -0.01,0.27664 7e-5,-6e-5 0.14289,-0.12612 0.14296,-0.12618 0.17522,-0.15453 0.3485,-0.30701 0.51982,-0.45746 M 311.45832,172.8072 c 0.003,0.0188 0.006,0.0374 0.009,0.056 7e-4,0.005 0.001,0.009 0.002,0.0141 0.003,0.0184 0.005,0.0367 0.007,0.0548 0.01,0.0717 0.0199,0.14321 0.0294,0.21475 0.0365,0.27273 0.0795,0.5551 0.12562,0.84192 0,0 0,0 0,0 0.14923,0.92821 0.35879,1.94939 0.60425,3.04298 0.0105,0.0562 0.0685,0.3667 0.079,0.42286 0,0 0,0 0,0 0,0 0,1e-5 0,1e-5 0.71134,3.81044 1.63022,8.41402 2.6772,14.76468 0.1424,0.80101 0.28403,1.62815 0.4245,2.48449 0,0 0,0 0,0 1.15857,7.0638 2.31008,16.13525 3.21632,28.32751 0.18877,2.73092 0.35039,5.68206 0.4869,8.88059 0,0 0,1e-5 0,1e-5 0.18771,4.05388 0.34281,8.59911 0.45732,13.6703 0,0 0,1e-5 0,1e-5 0.0342,4.84182 0.15541,10.52504 0.39116,17.09029 0.1787,3.82451 0.3562,8.04471 0.52951,12.65962 0.69034,8.55601 1.3804,17.33412 1.9408,26.21523 0.17644,5.72851 0.29821,10.97467 0.3753,15.7226 0.0321,6.43684 -0.14846,12.18466 -0.49295,17.24513 -0.3267,6.06961 -0.71213,11.54906 -1.13584,16.46499 -0.31013,3.44389 -0.63807,6.67499 -0.97204,9.69599 0,0 -10e-6,10e-6 -10e-6,10e-6 -1.53855,14.41233 -3.28928,25.42374 -4.84475,34.11375 -0.0858,0.48627 -0.44137,2.49677 -0.52713,2.98304 0,0 0,1e-5 0,1e-5 -1.33374,7.55087 -2.47641,13.64012 -3.05783,18.23596 0,0 0,1e-5 0,1e-5 -0.0228,0.18069 -0.0446,0.3595 -0.0655,0.53645 -0.16827,1.42246 -0.28518,2.73621 -0.33786,3.91633 -0.002,0.04 -0.003,0.0799 -0.005,0.11962 -0.0129,0.32306 -0.0213,0.64063 -0.0248,0.9473 -1.1e-4,0.01 -2.1e-4,0.0196 -2.9e-4,0.0294 -6.6e-4,0.0803 -0.001,0.16138 -0.001,0.24242 5e-5,-4e-5 0.0912,-0.0783 0.0913,-0.0784 0.11163,-0.0958 0.2212,-0.18948 0.32872,-0.28114 M 322.08251,174.3872 c 0.002,0.0163 0.004,0.0325 0.006,0.0487 -2e-5,-1.3e-4 0.001,0.0125 0.001,0.0124 0.002,0.0162 0.004,0.0324 0.005,0.0484 0.004,0.0391 0.0177,0.15195 0.0222,0.19107 0.0283,0.24406 0.0625,0.49898 0.099,0.75926 0,0 0,0 0,0 0.11799,0.84135 0.28256,1.78318 0.47039,2.79851 -0.001,-0.007 0.0595,0.40025 0.0585,0.39326 0,0 0,0 0,0 0,0 0,1e-5 0,1e-5 0.51462,3.48969 1.14231,8.01047 1.79601,14.11932 0.0926,0.77832 0.18359,1.58329 0.27251,2.4181 0,0 0,0 0,0 0.72989,6.89054 1.40318,15.81509 1.87293,27.92407 0.0912,2.71175 0.15809,5.64394 0.20381,8.82839 0,0 0,0 0,0 0.0729,4.03538 0.12016,8.56582 0.1379,13.62773 0,0 0,0 0,1e-5 -0.0595,4.83212 -0.0212,10.5121 0.14827,17.07858 0.13994,3.82532 0.28425,8.04819 0.43166,12.66791 0.63991,8.55804 1.3082,17.35547 1.87841,26.23882 0.18225,5.73318 0.32337,10.98227 0.43037,15.73036 0.0721,6.43772 -0.0498,12.18174 -0.32323,17.23646 -0.24197,6.06275 -0.52461,11.53145 -0.83308,16.43295 -0.22918,3.43302 -0.47029,6.65336 -0.71321,9.65983 0,0 0,1e-5 0,1e-5 -1.10338,14.34705 -2.33902,25.24917 -3.41407,33.78084 0.0377,-0.30455 -0.39869,3.22971 -0.36097,2.92516 0,0 0,0 0,0 -0.91122,7.40376 -1.67222,13.2709 -2.02751,17.62198 0,0 0,0 0,0 -0.0139,0.17081 -0.0271,0.33964 -0.0396,0.50653 -0.10055,1.34145 -0.16414,2.56736 -0.18106,3.65195 -5.7e-4,0.0368 -10e-4,0.0734 -10e-4,0.10986 -0.003,0.2965 -0.004,0.58587 -3.3e-4,0.86255 1.1e-4,0.009 2.3e-4,0.0177 3.6e-4,0.0265 0.001,0.0724 0.002,0.14477 0.004,0.21643 2e-5,-2e-5 0.0489,-0.0393 0.0489,-0.0393 0.0596,-0.0477 0.11705,-0.0933 0.17238,-0.13688 m 10.46951,-244.65584 c 0.001,0.0146 0.003,0.0293 0.004,0.044 4e-5,4.3e-4 10e-4,0.0108 10e-4,0.0112 0.003,0.0349 8.9e-4,0.009 0.004,0.0443 0.006,0.0578 0.0119,0.11662 0.0181,0.17568 0.0237,0.22535 0.0523,0.46275 0.0822,0.70574 0,0 0,0 0,0 0.0963,0.78203 0.22567,1.6786 0.36424,2.63983 0.0137,0.12299 0.0273,0.24761 0.0408,0.37392 0,0 0,0 0,0 0,0 0,0 0,0 0.3519,3.29905 0.69345,7.72558 0.98789,13.69217 0.0461,0.76313 0.0896,1.55315 0.1301,2.37347 0,0 0,1e-5 0,1e-5 0.32715,6.77848 0.54854,15.59201 0.60538,27.64511 -10e-4,2.69884 -0.0235,5.61506 -0.0634,8.78967 0,0 0,1e-5 0,1e-5 -0.0353,4.02168 -0.0894,8.53894 -0.16235,13.59247 0,1e-5 0,1e-5 0,1e-5 -0.14712,4.82315 -0.18613,10.49761 -0.0782,17.06043 0.0106,0.38952 0.33081,12.27448 0.34139,12.664 0.59377,8.5594 1.24162,17.3503 1.82197,26.23349 0.18849,5.73108 0.34833,10.97853 0.48376,15.72284 0.11042,6.43354 0.0442,12.17089 -0.16146,17.21907 -0.16143,6.05481 -0.34664,11.5137 -0.54608,16.40396 -0.15255,3.42336 -0.31162,6.63813 -0.46852,9.63314 0,0 0,10e-6 0,10e-6 -0.69215,14.2966 -1.44277,25.13589 -2.07014,33.56175 -0.0724,0.9954 -0.14115,1.95545 -0.20647,2.88802 0,1e-5 0,1e-5 -1e-5,1e-5 -0.51861,7.31765 -0.93209,13.02558 -1.09499,17.22706 0,0 0,0 0,0 -0.006,0.16443 -0.0122,0.32682 -0.0176,0.48721 -0.0435,1.2891 -0.0648,2.45827 -0.0571,3.48079 2.5e-4,0.0347 5.6e-4,0.0692 9.2e-4,0.10353 0.003,0.27925 0.008,0.55027 0.0148,0.80735 10e-6,1.6e-4 7e-4,0.0245 7e-4,0.0247 0.002,0.0672 0.004,0.1339 0.006,0.19939 0.007,-0.004 0.0134,-0.008 0.0199,-0.0124 0.0238,-0.0147 0.0455,-0.0273 0.065,-0.0378 m 10.58128,-243.25631 c 0.001,0.0139 0.002,0.0278 0.003,0.0419 1e-5,1.6e-4 9.2e-4,0.0106 9.3e-4,0.0107 10e-4,0.0141 0.003,0.0282 0.004,0.0424 0.005,0.0554 0.0107,0.11191 0.0163,0.16882 0.0214,0.21631 0.0467,0.44729 0.0718,0.68183 0,0 0,0 0,0 0.0843,0.78881 0.17574,1.59817 0.27351,2.56786 0.008,0.12001 0.0165,0.24167 0.0243,0.36503 0,0 0,0 0,0 0,0 0,0 0,0 0.20221,3.2092 0.26323,7.59402 0.2125,13.48946 0.001,0.7557 -10e-4,1.53831 -0.008,2.3515 0,0 0,0 0,0 -0.0641,6.74441 -0.28,15.45885 -0.62483,27.50475 -0.0908,2.69711 -0.19942,5.59559 -0.32239,8.77012 0,0 0,10e-6 0,10e-6 -0.13999,4.01178 -0.29215,8.52863 -0.45219,13.57515 0,1e-5 0,1e-5 0,1e-5 -0.23136,4.8188 -0.34449,10.49109 -0.29488,17.05211 0.0696,3.82229 0.15457,8.04316 0.2567,12.66185 0.55079,8.55839 1.18152,17.34779 1.77302,26.2279 -0.56227,-16.46119 1.10024,32.17722 0.53797,15.71603 0.1483,6.43036 0.13654,12.16304 -0.003,17.2077 -0.083,6.05057 -0.17363,11.50409 -0.26747,16.38947 -0.0278,1.21288 -0.204,8.40864 -0.23182,9.62153 0,0 0,10e-6 0,10e-6 -0.29314,14.19028 -0.57882,25.17515 -0.77639,33.47272 -0.0224,0.99017 -0.0419,1.94587 -0.0588,2.87283 0,0 0,10e-6 0,10e-6 -0.14262,7.30266 -0.23044,12.903 -0.22007,17.05944 0,0 0,0 0,0 4.3e-4,0.16166 10e-4,0.32124 0.002,0.4788 0.007,1.26598 0.0218,2.41074 0.0474,3.40544 2e-5,9.2e-4 0.003,0.0998 0.003,0.10072 0.007,0.27154 0.0155,0.53448 0.0244,0.78276 10e-6,2.7e-4 8.6e-4,0.0235 8.7e-4,0.0238 0.002,0.0648 0.005,0.12904 0.007,0.19174 0.002,-1.6e-4 0.004,-1.8e-4 0.006,-4e-5 0.007,5.2e-4 0.0126,0.003 0.0156,0.008 m 10.64056,-242.97056 c 10e-4,0.014 0.002,0.0282 0.004,0.0424 2e-5,2.6e-4 9.3e-4,0.0106 9.5e-4,0.0109 7.4e-4,0.008 0.003,0.0346 0.004,0.0429 0.005,0.0559 0.0106,0.1132 0.0159,0.17056 0.0207,0.22163 0.0426,0.44808 0.0637,0.68769 0,0 0,0 0,0 0.0681,0.7745 0.13393,1.62932 0.18549,2.58277 0.003,0.12056 0.005,0.24277 0.007,0.36666 0,0 0,0 0,0 0,0 0,0 0,0 0.0503,3.21384 -0.17403,7.62386 -0.57001,13.51332 -0.044,0.75616 -0.0926,1.53897 -0.14593,2.35252 0,0 0,0 0,0 -0.44521,6.56118 -1.12121,15.64651 -1.85536,27.50888 -0.17817,2.66506 -0.37708,5.62928 -0.58058,8.77226 0,0 0,1e-5 0,1e-5 -0.24428,4.01432 -0.49355,8.53031 -0.73987,13.58051 0,0 0,1e-5 0,1e-5 -0.31472,4.82088 -0.50085,10.49684 -0.50788,17.06101 0.0364,3.82429 0.0937,8.04708 0.17551,12.66772 0.51216,8.59037 1.1252,17.32537 1.73187,26.23485 0.2043,5.73103 0.40284,10.97374 0.59515,15.71701 0.18706,6.43087 0.23002,12.16302 0.15646,17.20884 -0.004,6.05023 -8e-4,11.50817 0.0104,16.39456 -0.005,3.43212 -0.005,6.62357 0.003,9.62749 0,0 0,2e-5 0,2e-5 0.0995,14.31664 0.28101,25.08777 0.5042,33.52126 0.027,0.99241 0.056,1.95087 0.0869,2.88015 0,0 0,1e-5 0,1e-5 0.23245,7.39675 0.45609,12.86956 0.63758,17.12319 0,0 0,1e-5 0,1e-5 4.2e-4,0.01 0.0205,0.47176 0.021,0.48142 0.0561,1.27835 0.10419,2.41976 0.14575,3.42722 9e-5,0.002 0.004,0.0993 0.004,0.10148 0.005,0.10759 0.0277,0.68166 0.0323,0.78926 1e-5,4e-4 9.6e-4,0.0236 9.7e-4,0.024 0.002,0.0381 0.006,0.15565 0.008,0.19371 0.003,-0.001 0.007,-0.002 0.01,-0.003 0.0117,-0.003 0.0211,-0.005 0.0284,-0.004 M 364.7017,175.09658 c -0.001,-0.0154 0.006,0.061 0.004,0.0456 -2e-5,-2.2e-4 0.001,0.0118 0.001,0.0116 10e-4,0.0152 0.003,0.0305 0.004,0.0457 0.005,0.0597 0.0107,0.12006 0.0157,0.18086 0.0192,0.23266 0.0381,0.47365 0.0538,0.72316 0,0 0,0 0,0 0.051,0.80911 0.0837,1.70149 0.0871,2.68394 -0.003,0.12463 -0.007,0.25087 -0.0114,0.37874 0,0 0,0 0,0 0,0 0,0 0,0 -0.11779,3.30997 -0.64467,7.81616 -1.39894,13.76184 -0.0909,0.76445 -0.18727,1.55495 -0.28935,2.37629 0,1e-5 0,1e-5 0,1e-5 -0.85693,6.7382 -1.97355,15.64347 -3.12303,27.65522 -0.27066,2.69099 -0.55619,5.62717 -0.84493,8.79542 0,0 0,10e-6 0,10e-6 -0.35082,4.02387 -0.69914,8.54848 -1.03305,13.60749 0,0 0,1e-5 0,1e-5 -0.39938,4.82899 -0.65932,10.51398 -0.72284,17.08558 0.003,3.8288 0.0334,8.05579 0.0957,12.68024 0.47291,8.59062 1.0756,17.34573 1.69754,26.25129 0.21454,5.73295 0.43462,10.97866 0.65718,15.72393 0.22792,6.43437 0.32757,12.16946 0.32216,17.22073 0.0765,6.05681 0.17687,11.52138 0.29546,16.41791 0.0708,3.43473 0.15058,6.64206 0.2433,9.65043 0,0 0,2e-5 0,2e-5 0.50206,14.3474 1.15499,25.20011 1.80919,33.70613 0.0774,1.00198 0.15593,1.97056 0.23552,2.90994 0,0 0,1e-5 0,1e-5 0.48386,5.86654 1.03462,11.55171 1.51848,17.41826 0,0 0,0 0,0 -0.003,-0.0374 0.0439,0.53246 0.0408,0.4951 0.10716,1.31108 0.19192,2.50044 0.2515,3.54611 -10e-4,-0.0195 0.007,0.12532 0.006,0.1058 0.0162,0.28558 0.0302,0.56281 0.0421,0.82684 1e-5,3.8e-4 0.001,0.0249 0.001,0.0253 0.003,0.069 0.006,0.13765 0.009,0.20528 0.0102,-0.007 0.0202,-0.0146 0.03,-0.0217 0.0363,-0.0261 0.0704,-0.0501 0.1024,-0.0721 m 10.5891,-245.74093 c 0.002,0.0172 0.004,0.0343 0.005,0.0514 4e-4,0.004 8e-4,0.009 10e-4,0.013 0.002,0.017 0.003,0.0339 0.004,0.0507 0.005,0.0663 0.0104,0.13288 0.0147,0.19953 0.0162,0.25494 0.0297,0.51786 0.0379,0.78773 0,0 0,0 0,1e-5 0.0267,0.8751 0.0179,1.83084 -0.0353,2.87003 -0.0104,0.13213 -0.0216,0.2658 -0.0338,0.40105 0,0 0,0 0,0 0,0 0,0 0,0 -0.31571,3.49483 -1.17499,8.16802 -2.313,14.22899 -0.14122,0.7804 -0.28865,1.58564 -0.44286,2.42202 0,0 0,0 0,0 -1.29073,6.87088 -2.88425,15.84645 -4.46377,27.93328 -0.36682,2.70783 -0.74506,5.65294 -1.12204,8.83582 0,0 0,1e-5 0,1e-5 -0.4623,4.03956 -0.91397,8.57799 -1.33888,13.64919 0,0 0,1e-5 0,1e-5 -0.48725,4.84056 -0.8236,10.53645 -0.94487,17.11534 -0.0308,3.8333 -0.028,8.0637 0.0151,12.69038 0.43407,8.59286 1.02779,17.3562 1.6678,26.25831 0.22674,5.7327 0.47051,10.97935 0.72563,15.72601 0.27202,6.43685 0.43203,12.17483 0.49896,17.23333 0.16226,6.06471 0.36459,11.54053 0.59599,16.45183 0.15007,3.444 0.31418,6.66564 0.49505,9.68667 0,0 0,2e-5 0,2e-5 0.92348,14.40792 2.06946,25.37365 3.17658,34.01732 0.13029,1.01863 0.26106,2.00454 0.39202,2.96157 0,0 0,0 0,10e-6 1.01007,7.5303 1.91163,13.43545 2.46329,17.94039 0,0 0,0 0,0 0.0215,0.17516 0.0425,0.34844 0.0632,0.51969 0.1653,1.37728 0.29335,2.63852 0.37805,3.76081 -1.6e-4,-0.002 0.009,0.11582 0.009,0.11366 0.0229,0.30689 0.0421,0.60685 0.0577,0.89491 10e-6,2.5e-4 0.002,0.0274 0.002,0.0276 0.004,0.0754 0.008,0.15098 0.0115,0.22616 3e-5,-3e-5 0.065,-0.0539 0.065,-0.0539 0.0793,-0.0657 0.1566,-0.12929 0.23174,-0.19085 m 10.48355,-248.56668 c 0.002,0.02 0.004,0.0399 0.006,0.0595 4.1e-4,0.005 8.1e-4,0.01 10e-4,0.0149 0.002,0.0195 0.003,0.0388 0.004,0.0579 0.005,0.0756 0.009,0.15116 0.0113,0.22625 0.01,0.28715 0.0145,0.58116 0.0114,0.8806 0,0 0,10e-6 0,10e-6 -0.01,0.97086 -0.0729,2.01683 -0.19558,3.13893 -0.0193,0.14294 -0.0397,0.28735 -0.0612,0.43323 0,0 0,0 0,0 0,0 0,10e-6 0,10e-6 -0.55678,3.76519 -1.79099,8.6734 -3.3504,14.9047 -0.0487,0.19888 -0.56257,2.28942 -0.61122,2.48831 -1e-5,0 -1e-5,0 -1e-5,0 -1.7647,7.05044 -3.87326,16.15044 -5.91269,28.32435 -0.46971,2.72782 -0.94723,5.68808 -1.41818,8.8865 0,0 0,10e-6 0,10e-6 -0.58118,4.05805 -1.1427,8.61113 -1.66389,13.69288 0,0 0,1e-5 0,1e-5 -0.57995,4.85081 -0.99691,10.55304 -1.17864,17.13091 -0.0665,3.83304 -0.0922,8.06052 -0.0685,12.68145 0.39356,8.58283 0.97893,17.33687 1.63917,26.22117 0.241,5.72243 0.5111,10.96171 0.80176,15.70352 0.32043,6.43104 0.5462,12.16532 0.69197,17.22838 0.25542,6.06869 0.56784,11.55472 0.92058,16.4822 0.2354,3.45491 0.49005,6.69191 0.76548,9.72944 0,0 0,2e-5 0,2e-5 1.37508,14.48443 3.04885,25.59778 4.64486,34.43608 0.18747,1.04189 0.37471,2.05196 0.56135,3.03379 0,0 0,1e-5 0,1e-5 1.44406,7.72504 2.72744,13.87683 3.51284,18.68122 0,0 0,0 0,0 0.0306,0.18682 0.0605,0.37182 0.0898,0.55491 0.23479,1.47239 0.41756,2.8362 0.53893,4.06874 -1.3e-4,-10e-4 0.0123,0.12618 0.0122,0.12491 0.0328,0.33754 0.0604,0.66997 0.083,0.99238 10e-6,1.6e-4 0.002,0.0308 0.002,0.031 0.006,0.0845 0.0115,0.16997 0.0166,0.25583 6e-5,-5e-5 0.11197,-0.097 0.11203,-0.097 0.13719,-0.11871 0.27235,-0.23537 0.40548,-0.34999 M 396.79868,170.0233 c 0.002,0.0236 0.004,0.0469 0.006,0.0698 3.6e-4,0.006 7e-4,0.0116 10e-4,0.0174 10e-4,0.0227 0.002,0.0451 0.002,0.0671 0.003,0.0876 0.005,0.17456 0.004,0.26054 -0.001,0.32875 -0.0108,0.66282 -0.0304,1.00064 0,0 0,1e-5 0,1e-5 -0.0634,1.09518 -0.19816,2.25769 -0.40806,3.48775 -0.0304,0.15692 -0.0621,0.31519 -0.0952,0.47482 0,0 0,0 0,0 0,0 0,0 0,10e-6 -0.85423,4.11703 -2.51828,9.32335 -4.54876,15.77482 -0.25652,0.82655 -0.54269,1.74665 -0.79921,2.57321 0,0 0,0 0,0 -2.29191,7.27683 -4.9649,16.53589 -7.50405,28.80154 -0.58148,2.74906 -1.16671,5.72539 -1.73921,8.93733 0,0 0,0 0,0 -0.70977,4.07446 -1.38969,8.63676 -2.01411,13.72002 0,1e-5 0,1e-5 0,1e-5 -0.6788,4.85279 -1.18204,10.54736 -1.42828,17.10398 -0.10485,3.82111 -0.16099,8.03123 -0.15736,12.62909 0.34906,8.54333 0.92518,17.25517 1.60686,26.08926 0.25741,5.69102 0.55682,10.90515 0.88655,15.62783 0.37422,6.40711 0.67282,12.12016 0.90651,17.17934 0.3586,6.06052 0.79225,11.54883 1.27808,16.48854 0.32905,3.46335 0.68289,6.7142 1.06174,9.76888 0,0 0,2e-5 0,2e-5 1.86834,14.56283 4.11807,25.85095 6.25305,34.93489 0.25056,1.07113 0.50019,2.11159 0.74847,3.12478 0,0 0,1e-5 0,1e-5 1.89985,7.86813 3.66187,14.55033 4.7081,19.6282 0,0 0,0 0,0 0.0416,0.20185 0.0824,0.40199 0.12226,0.60036 0.32006,1.59513 0.57354,3.09115 0.74769,4.46596 -1.2e-4,-9.2e-4 0.0177,0.14036 0.0175,0.13944 0.0472,0.37706 0.0877,0.75118 0.12164,1.1176 1e-5,1.2e-4 0.003,0.0351 0.003,0.0352 0.009,0.0961 0.0174,0.19417 0.0252,0.29353 8e-5,-6e-5 0.16666,-0.147 0.16673,-0.14706 0.001,-9.3e-4 0.6066,-0.53358 0.60764,-0.5345 M 407.508,167.92225 c 0.002,0.0278 0.003,0.0551 0.004,0.082 2.1e-4,0.007 3.7e-4,0.0136 5e-4,0.0204 5.2e-4,0.0266 4.6e-4,0.0526 -1.9e-4,0.0782 -2.9e-4,0.10194 -0.003,0.20264 -0.008,0.30181 -0.0195,0.37915 -0.0496,0.7618 -0.0926,1.14639 0,0 0,1e-5 0,1e-5 -0.13899,1.24669 -0.36795,2.55098 -0.68751,3.91284 -0.0442,0.17386 -0.09,0.34892 -0.13724,0.5252 0,0 0,0 0,0 0,0 0,0 0,1e-5 -1.22119,4.5453 -3.38204,10.10626 -5.9452,16.82111 0.6208,-1.6397 -1.6323,4.3139 -1.01149,2.6742 0,0 0,0 0,0 -2.88495,7.54439 -6.18324,16.98302 -9.27121,29.32975 -0.70419,2.76803 -1.40738,5.75645 -2.09065,8.97504 0,0 0,0 0,0 -0.85023,4.08227 -1.65895,8.64023 -2.39498,13.7062 0,1e-5 0,1e-5 0,1e-5 -0.78488,4.83735 -1.38133,10.49785 -1.69746,16.99731 -0.14689,3.78846 -0.23601,7.95609 -0.25381,12.5013 0.29786,8.45243 0.86187,17.06759 1.56485,25.79612 0.27592,5.6239 0.60788,10.78257 0.98065,15.46138 0.4358,6.37192 0.8132,11.99236 1.14799,17.05143 0.47462,6.02933 1.04373,11.50299 1.67769,16.44395 0.43342,3.46428 0.89755,6.72338 1.39121,9.79206 0,0 0,10e-6 0,10e-6 2.41494,14.62538 5.30241,26.10398 8.04061,35.47749 0.32121,1.10546 0.64083,2.18173 0.95838,3.23209 0,0 0,0 0,0 2.43844,8.17238 4.69658,15.20335 6.09023,20.76464 0,0 0,1e-5 0,1e-5 0.0551,0.22007 0.10928,0.43858 0.16231,0.65547 0.42554,1.744 0.77021,3.40015 1.01788,4.94728 -1.2e-4,-6.9e-4 0.0251,0.15774 0.025,0.15704 0.0672,0.4249 0.12643,0.84921 0.17753,1.26839 10e-6,9e-5 0.005,0.0402 0.005,0.0403 0.0136,0.11006 0.0264,0.22302 0.0384,0.33827 8e-5,-7e-5 0.22334,-0.19853 0.22342,-0.1986 10e-4,-9.8e-4 0.81615,-0.72373 0.81725,-0.7247 m 9.97451,-259.4864 c 9.4e-4,0.0325 10e-4,0.0644 7.5e-4,0.0956 -1.1e-4,0.008 -2.7e-4,0.0158 -4.8e-4,0.0237 -8.1e-4,0.0309 -0.002,0.0612 -0.005,0.0908 -0.006,0.11832 -0.015,0.23486 -0.027,0.34934 -0.046,0.43763 -0.10553,0.8768 -0.18028,1.31606 0,0 0,1e-5 0,1e-5 -0.24198,1.4238 -0.59254,2.89371 -1.04911,4.40982 -0.0613,0.19349 -0.12423,0.38802 -0.18889,0.5836 0,0 0,0 0,0 0,0 0,0 0,0 -1.67074,5.04386 -4.40704,11.00798 -7.57627,18.02128 0.33962,-0.75459 -1.59232,3.54276 -1.25271,2.78818 0,0 0,0 0,0 -3.55619,7.84507 -7.55195,17.46859 -11.24672,29.86568 -0.83976,2.78018 -1.67288,5.77107 -2.47765,8.98319 0,0 0,1e-5 0,1e-5 -1.00452,4.07345 -1.95411,8.60341 -2.8114,13.62121 0,1e-5 0,1e-5 0,1e-5 -0.89893,4.79314 -1.59665,10.37778 -1.98935,16.76475 -0.19353,3.72381 -0.31907,7.81061 -0.36018,12.25842 0.23691,8.28318 0.78351,16.72001 1.50585,25.25946 0.29641,5.50296 0.66429,10.5604 1.0844,15.15765 0.50003,6.22285 0.9761,11.8349 1.42204,16.80158 0.60634,5.9617 1.32837,11.3927 2.12887,16.31518 0.55097,3.45156 1.139,6.70806 1.76147,9.78292 0,-1e-5 0,10e-6 0,10e-6 3.02673,14.65034 6.62754,26.32049 10.04748,36.01884 0.40111,1.14383 0.8,2.26032 1.19613,3.35267 0,0 0,1e-5 0,1e-5 3.04976,8.50894 5.88051,15.95245 7.70053,22.06969 0,0 10e-6,10e-6 10e-6,10e-6 0.0718,0.24126 0.1423,0.48113 0.21154,0.71957 0.55569,1.91707 1.0166,3.75913 1.36313,5.5062 0.0117,0.0592 0.0234,0.11833 0.035,0.17743 0.0943,0.48037 0.17915,0.96247 0.25449,1.44206 10e-6,8e-5 0.007,0.0461 0.007,0.0461 0.02,0.12599 0.039,0.25578 0.0571,0.38876 8e-5,-7e-5 0.27497,-0.24496 0.27504,-0.24502 10e-4,-9.4e-4 1.00728,-0.89529 1.00834,-0.89623 m 9.80275,-262.48006 c -9.1e-4,0.0375 -0.003,0.0743 -0.005,0.11032 -6.4e-4,0.009 -10e-4,0.0183 -0.002,0.0273 -0.003,0.0356 -0.007,0.0705 -0.0113,0.10468 -0.0148,0.13639 -0.0329,0.27054 -0.0547,0.40222 -0.0831,0.50335 -0.18228,1.0063 -0.29892,1.50757 0,0 0,1e-5 0,1e-5 -0.37767,1.62465 -0.88247,3.28233 -1.5084,4.97353 -0.082,0.21551 -0.16586,0.43188 -0.2516,0.64912 0,0 0,0 0,0 0,0 -1e-5,1e-5 -1e-5,1e-5 -2.21579,5.60525 -5.61764,12.01188 -9.47794,19.34892 0.39833,-0.75794 -1.92581,3.66942 -1.52747,2.91148 0,0 0,0 0,0 -4.31779,8.169 -9.09432,17.96534 -13.46228,30.35782 -0.99001,2.78002 -1.96663,5.75716 -2.90498,8.9422 0,1e-5 0,1e-5 0,1e-5 -1.17447,4.03842 -2.27848,8.50472 -3.2677,13.42903 0,1e-5 0,1e-5 0,1e-5 -1.02143,4.70663 -1.82945,10.15526 -2.30662,16.35122 -0.2458,3.61374 -0.412,7.56559 -0.4789,11.85313 0.16273,8.00352 0.68378,16.14779 1.42131,24.3811 0.31864,5.30673 0.72589,10.19868 1.19786,14.66123 0.57502,6.04309 1.15689,11.50541 1.73437,16.37852 0.7568,5.84158 1.65252,11.18868 2.64144,16.06253 0.6842,3.41791 1.41236,6.65461 2.18027,9.72234 0,0 0,10e-6 0,10e-6 3.71576,14.61182 8.11959,26.45699 12.31413,36.50518 0.49196,1.18496 0.98106,2.34485 1.46674,3.48288 0,0 0,10e-6 0,10e-6 3.74738,8.87066 7.24039,16.77721 9.58049,23.51837 0,0 0,1e-5 0,1e-5 0.092,0.26513 0.1826,0.52908 0.27167,0.7918 0.71495,2.11209 1.32168,4.16324 1.79708,6.13491 0.0161,0.0668 0.0321,0.13358 0.048,0.20034 0.12955,0.54261 0.24841,1.08905 0.35636,1.63536 10e-6,5e-5 0.0104,0.0525 0.0104,0.0525 0.0286,0.14356 0.0561,0.29159 0.0825,0.44354 7e-5,-6e-5 0.31314,-0.2784 0.3132,-0.27846 9.5e-4,-8.5e-4 1.14891,-1.01917 1.14987,-1.02002 m 9.67237,-264.18978 c -0.004,0.0426 -0.009,0.0845 -0.0143,0.12559 -0.001,0.0104 -0.003,0.0208 -0.004,0.0311 -0.006,0.0406 -0.013,0.0805 -0.0208,0.11956 -0.0272,0.15572 -0.0581,0.30894 -0.0929,0.45946 -0.13279,0.57536 -0.2838,1.14853 -0.45413,1.71849 0,0 -10e-6,1e-5 -10e-6,1e-5 -0.55163,1.84712 -1.24864,3.71276 -2.08138,5.59804 -0.1069,0.2396 -0.21585,0.47984 -0.32681,0.72075 0,0 -1e-5,1e-5 -1e-5,1e-5 0,0 0,0 0,0 -2.86909,6.22076 -7.03791,13.09906 -11.68571,20.7736 0.79022,-1.30378 -2.63052,4.34364 -1.8403,3.03986 0,0 0,0 0,0 -5.18156,8.50459 -10.83321,18.44191 -15.9487,30.74645 -1.15666,2.76118 -2.29183,5.7007 -3.37705,8.82935 0,0 0,1e-5 0,1e-5 -1.36174,3.96603 -2.63502,8.31904 -3.76767,13.08775 0,0 0,1e-5 0,1e-5 -1.15256,4.56209 -2.08071,9.79326 -2.65146,15.69272 -0.30471,3.44265 -0.51665,7.18711 -0.61241,11.23045 0.0714,7.57625 0.55553,15.27581 1.30139,23.04706 0.34233,5.01019 0.79233,9.65095 1.32079,13.90775 0.65831,5.7634 1.36147,11.00445 2.0909,15.72267 0.9291,5.65041 2.02268,10.85703 3.22546,15.63998 0.83572,3.35486 1.72292,6.54719 2.65559,9.5881 0,0 1e-5,2e-5 1e-5,2e-5 4.4942,14.47972 9.80507,26.46292 14.88146,36.87397 0.59547,1.22733 1.18741,2.4324 1.77532,3.61846 0,0 1e-5,10e-6 1e-5,10e-6 4.54477,9.24727 8.80315,17.65567 11.7717,25.08152 0,0 10e-6,10e-6 10e-6,10e-6 0.11645,0.29137 0.23124,0.58179 0.34432,0.8712 0.90779,2.32639 1.69452,4.60679 2.33341,6.82429 0.0216,0.0751 0.0432,0.15027 0.0646,0.2254 0.17431,0.61068 0.33674,1.22671 0.48701,1.84451 1e-5,3e-5 0.0145,0.0594 0.0145,0.0594 0.0397,0.16234 0.0781,0.32945 0.11544,0.50086 5e-5,-5e-5 0.32807,-0.28969 0.32812,-0.28974 8.1e-4,-7.1e-4 1.20503,-1.06165 1.20583,-1.06236 m 9.61575,-263.90061 c -0.008,0.0477 -0.0176,0.0946 -0.0276,0.1408 -0.003,0.0117 -0.005,0.0234 -0.008,0.0351 -0.0104,0.0458 -0.0217,0.0908 -0.0338,0.13505 -0.0442,0.17582 -0.0919,0.34917 -0.14354,0.51989 -0.19713,0.65256 -0.41416,1.30149 -0.65175,1.94608 0,0 -1e-5,10e-6 -1e-5,10e-6 -0.76956,2.08882 -1.70221,4.18038 -2.78444,6.27668 -0.13648,0.26534 -0.27515,0.53111 -0.41597,0.79732 0,0 0,0 0,0 0,0 0,1e-5 0,1e-5 -3.64315,6.88033 -8.69161,14.24819 -14.23446,22.26077 -2.62605,3.78929 0.43034,-0.62078 -2.19571,3.16851 0,0 -1e-5,0 -1e-5,0 -6.15901,8.8385 -12.79123,18.86281 -18.73596,30.96369 -1.34131,2.71633 -2.65147,5.58573 -3.89791,8.6187 0,0 -10e-6,10e-6 -10e-6,10e-6 -1.5678,3.84359 -3.02632,8.01779 -4.31451,12.54968 0,1e-5 0,1e-5 0,1e-5 -1.29225,4.3416 -2.35098,9.24954 -3.02556,14.71635 -0.37131,3.19275 -0.63493,6.63649 -0.76322,10.32774 -0.0412,6.95899 0.3908,14.01845 1.135,21.12745 0.36708,4.58491 0.86304,8.86436 1.45263,12.82393 0.7507,5.35838 1.59236,10.27922 2.49765,14.76623 1.12651,5.36699 2.44567,10.35906 3.89138,14.99506 1.0082,3.2528 2.07606,6.36776 3.1956,9.3549 0,0 0,2e-5 0,2e-5 5.37432,14.21969 11.71108,26.28082 17.79092,37.05393 0.71335,1.2693 1.42244,2.51964 2.12696,3.75458 0,0 0,10e-6 0,10e-6 5.45543,9.62631 10.59598,18.5635 14.316,26.72583 0,0 0,10e-6 0,10e-6 0.14563,0.31961 0.28938,0.63851 0.4312,0.95666 1.13868,2.55693 2.14413,5.08325 2.98584,7.56393 0.0285,0.084 0.0569,0.16813 0.0852,0.25221 0.22981,0.68344 0.44671,1.37291 0.65032,2.06519 -10e-6,-3e-5 0.0196,0.0666 0.0196,0.0666 0.0536,0.18184 0.10593,0.36821 0.15708,0.55873 4e-5,-4e-5 0.30864,-0.26839 0.30869,-0.26843 6.2e-4,-5.4e-4 1.13456,-0.98429 1.13518,-0.98483 m 9.66977,-260.80539 c -0.0146,0.0524 -0.0299,0.10413 -0.0458,0.15532 -0.004,0.013 -0.008,0.026 -0.0123,0.0389 -0.0162,0.0508 -0.0332,0.10108 -0.0508,0.15074 -0.0663,0.19617 -0.13587,0.39028 -0.20873,0.58224 -0.27841,0.73371 -0.57764,1.46293 -0.89786,2.18726 0,0 -1e-5,1e-5 -1e-5,1e-5 -1.03732,2.34705 -2.25467,4.68004 -3.63437,7.002 -0.1712,0.29233 -0.34471,0.58483 -0.52048,0.87754 0,0 0,0 0,0 0,0 0,1e-5 0,1e-5 -4.55025,7.57266 -10.60223,15.43554 -17.15857,23.77183 -0.44413,0.56364 -2.154,2.7284 -2.59814,3.29204 0,0 0,1e-5 0,1e-5 -7.26101,9.15548 -14.99092,19.18863 -21.85321,30.9334 -1.54547,2.63729 -3.04829,5.39439 -4.47123,8.28121 0,0 0,0 0,0 -1.79401,3.65687 -3.45468,7.5689 -4.91092,11.7613 0,10e-6 0,10e-6 -1e-5,10e-6 -1.44009,4.02504 -2.64033,8.47672 -3.43012,13.34025 -0.44663,2.8441 -0.76874,5.87037 -0.93387,9.07471 -0.1798,6.10421 0.18083,12.27965 0.90981,18.47659 0.39237,3.99894 0.93727,7.77954 1.59252,11.32755 0.85276,4.79724 1.8522,9.27274 2.96082,13.43312 1.35237,4.96754 2.92845,9.65143 4.64988,14.06893 1.20439,3.10093 2.47735,6.0961 3.80866,8.99435 0,0 1e-5,2e-5 1e-5,2e-5 6.36824,13.79284 13.86535,25.84639 21.08438,36.96501 0.84743,1.30904 1.68949,2.60272 2.52679,3.88578 0,0 0,1e-5 0,1e-5 6.49284,9.99343 12.64619,19.47373 17.25529,28.41383 0,0 1e-5,10e-6 1e-5,10e-6 0.18011,0.34943 0.35813,0.69842 0.53397,1.04693 1.41207,2.8003 2.67959,5.58533 3.76812,8.34213 0.0369,0.0934 0.0736,0.18686 0.11017,0.28031 0.29729,0.75964 0.58085,1.52478 0.85015,2.29257 2.1e-4,5.9e-4 0.0257,0.0732 0.0259,0.0738 0.0707,0.20151 0.14013,0.4066 0.20843,0.61492 3e-5,-2e-5 0.24237,-0.20278 0.2424,-0.20281 4.1e-4,-3.4e-4 0.89146,-0.74401 0.89187,-0.74435 m 9.87595,-254.00467 c -0.0229,0.0564 -0.0462,0.11257 -0.0699,0.16844 -0.006,0.0142 -0.012,0.0284 -0.0181,0.0425 -0.0238,0.0557 -0.048,0.11106 -0.0725,0.16617 -0.0946,0.21615 -0.19153,0.43119 -0.29069,0.64508 -0.37894,0.81747 -0.77865,1.63037 -1.19873,2.43865 0,0 -10e-6,1e-5 -10e-6,1e-5 -1.36097,2.61888 -2.91777,5.20606 -4.64837,7.76581 -0.21155,0.32006 -0.42549,0.64003 -0.64176,0.95995 0,0 -10e-6,0 -10e-6,0 0,0 0,1e-5 0,1e-5 -5.60238,8.28522 -12.79301,16.63496 -20.49183,25.2641 -1.00791,1.12856 -2.02531,2.26207 -3.05198,3.40452 0,0 -1e-5,0 -1e-5,0 -8.49695,9.4377 -17.45565,19.37675 -25.32871,30.57129 -1.77051,2.51496 -3.48484,5.10686 -5.1003,7.78465 0,0 0,0 -10e-6,0 -2.04147,3.39006 -3.92199,6.93679 -5.55899,10.66322 0,10e-6 0,10e-6 0,10e-6 -1.59542,3.59009 -2.94845,7.42227 -3.86587,11.47367 -0.53176,2.37456 -0.92004,4.84062 -1.12695,7.3934 -0.34949,4.95921 -0.084,9.95288 0.61218,14.93291 0.41763,3.2169 1.0141,6.33074 1.73929,9.32745 0.96499,4.04554 2.14365,7.92224 3.48676,11.63904 1.61014,4.4257 3.47827,8.68608 5.51199,12.79636 1.4271,2.88727 2.93249,5.70973 4.50335,8.47495 0,0 10e-6,1e-5 10e-6,1e-5 7.48726,13.15519 16.2971,25.0893 24.80424,36.51842 0.80698,1.08548 2.17299,2.92052 2.97997,4.00601 0,0 10e-6,10e-6 10e-6,10e-6 7.67046,10.33251 14.98128,20.35654 20.63171,30.10393 0,0 0,1e-5 0,1e-5 0.22048,0.38036 0.43861,0.76057 0.65434,1.1406 1.73244,3.0527 3.30998,6.1049 4.69402,9.14588 0.0469,0.10305 0.0936,0.20612 0.14011,0.3092 0.37803,0.83788 0.74173,1.67915 1.09042,2.52124 6e-5,1.7e-4 0.0334,0.0807 0.0335,0.0809 0.0913,0.22076 0.18141,0.44319 0.27053,0.66698 1e-5,-1e-5 0.11539,-0.0799 0.1154,-0.0799 2e-4,-1.4e-4 0.42462,-0.293 0.42482,-0.29313 M 215.38118,176.0293 c 33.37086,-23.95043 98.38639,-0.0325 131.14082,-0.0325 43.54448,-1e-5 87.8022,-31.58061 130.71901,-0.27732 m -258.55323,6.86342 c 32.37459,-26.79229 93.63034,-4.86585 128.00621,-4.86817 34.20449,-0.002 96.81467,-21.74183 127.02535,4.35238 m -251.16452,7.03601 c 30.77715,-29.51665 88.84059,-9.33215 124.32235,-9.34331 35.32384,-0.0111 94.70781,-20.04922 122.6457,8.52361 m -242.60386,7.31537 c 28.59895,-31.80155 83.86732,-13.34214 120.04394,-13.36692 36.03957,-0.0247 92.29378,-18.38922 117.84953,12.25564 m -233.10786,7.60345 c 26.11663,-33.75837 78.74371,-16.91242 115.28654,-16.95534 36.4295,-0.0428 89.72287,-16.85332 112.65045,15.53821 m -222.8076,7.92785 c 23.39762,-35.38683 73.48869,-20.04198 110.1318,-20.10679 36.55524,-0.0647 87.00995,-15.43823 107.12864,18.37666 m -211.86401,8.28019 c 20.49798,-36.68878 68.13193,-22.73281 104.66069,-22.82239 36.46763,-0.0894 84.1797,-14.14015 101.36327,20.77905 m -200.43606,8.65224 c 17.49612,-37.72921 62.73048,-25.03238 98.97383,-25.14873 36.21077,-0.11624 81.2707,-12.97305 95.4093,22.79794 m -188.67506,9.03655 c 14.38183,-38.32486 57.28897,-26.81697 93.11424,-26.96077 35.8213,-0.14378 78.3044,-11.8735 89.38536,24.32329 m -176.76408,9.42469 c 11.21004,-38.33793 51.87101,-27.97636 87.18123,-28.14681 35.33424,-0.17056 75.33281,-10.80961 83.39754,25.25856 m -164.91658,9.8033 c 8.03393,-37.75384 46.54731,-28.489 81.27952,-28.68378 34.78339,-0.19508 72.40963,-9.78416 77.55685,25.59313 m -153.3485,10.15902 c 4.90561,-36.56688 41.39173,-28.34687 75.51512,-28.56213 34.20064,-0.21576 69.59029,-8.7956 71.97337,25.32961 m -142.27463,10.47716 c 1.82249,-34.6216 36.43613,-27.425 69.95083,-27.65505 33.61526,-0.23074 66.92431,-7.80957 66.80582,24.35828 m -131.92082,10.7387 c -1.16526,-31.33843 31.76319,-25.24275 64.70338,-25.47876 33.05683,-0.23684 64.49644,-6.72091 62.24685,22.2322 M 284.7501,271.57173 c -3.97103,-26.26245 27.51585,-21.41345 59.95293,-21.64394 32.55967,-0.23136 62.41177,-5.45715 58.54161,18.58985 m -114.96325,10.96707 c -6.07096,-18.15455 24.23465,-14.88805 56.28343,-15.10046 32.17481,-0.21324 60.86281,-3.83034 55.69783,12.39964 m -109.46189,10.8762 c -6.85283,-6.74917 22.57996,-5.45559 54.40674,-5.64654 32.06688,-0.19239 59.99816,-1.81399 53.84319,3.35123 m -107.18524,10.67403 c -6.19013,4.97606 22.74569,4.29298 54.57415,4.11101 31.54062,-0.18032 60.58028,0.16303 53.15472,-6.15991 m -108.45733,10.46195 c -5.22879,15.1935 23.97057,12.7379 55.93928,12.55343 31.78143,-0.18339 61.1924,1.90411 54.40794,-14.52521 m -112.58916,10.22646 c -3.98488,22.26342 26.02965,18.44775 58.29234,18.2587 32.08235,-0.18799 62.38775,3.22831 57.18064,-20.22774 m -118.77924,9.96921 c -2.45093,27.0699 28.78102,22.16525 61.44996,21.97759 32.49059,-0.18664 63.99076,4.29955 61.00354,-23.91305 m -126.55179,9.68371 c -0.46977,30.44173 32.25995,24.58059 65.41588,24.40001 32.98224,-0.17964 65.93889,5.25553 65.41975,-26.26098 m -135.52207,9.37926 c 1.80902,32.67159 36.2624,25.93301 69.958,25.76425 33.52961,-0.16792 68.14003,6.14788 70.29647,-27.51282 m -145.34874,9.06374 c 4.34443,34.21108 40.68945,26.59309 74.95153,26.4394 34.10442,-0.15298 70.5408,7.05344 75.48083,-28.04604 m -155.82537,8.74208 c 7.03953,35.24357 45.42323,26.70384 80.25334,26.56738 34.68055,-0.13588 73.08286,8.00967 80.91584,-28.00966 m -166.76253,8.42052 c 9.8482,35.76159 50.39509,26.25433 85.76732,26.13647 35.23061,-0.11739 75.71646,9.0183 86.50613,-27.39746 m -177.96734,8.10622 c 12.72223,35.76536 55.5365,25.24503 91.39567,25.1464 35.72531,-0.0983 78.39268,10.07714 92.15559,-26.21484 m -189.24581,7.80593 c 15.61283,35.2734 60.78128,23.6954 97.04118,23.61588 36.13359,-0.0793 81.06505,11.18312 97.7678,-24.48607 m -200.40837,7.52428 c 18.48496,34.45526 66.0777,21.73033 102.6202,21.66896 36.42258,-0.0612 83.69887,12.37771 103.25254,-22.34131 m -211.30309,7.26242 c 21.27397,33.36143 71.36951,19.37889 108.04149,19.33409 36.55655,-0.0446 86.25565,13.67987 108.55905,-19.81435 m -221.78815,7.0246 c 23.93663,31.96851 76.62443,16.61985 113.2324,16.5896 36.49459,-0.0301 88.70651,15.0857 113.6137,-16.88706 m -231.71503,6.81586 c 26.4223,30.27261 81.81456,13.44689 118.11799,13.42875 36.18861,-0.0181 91.02843,16.59572 118.34174,-13.55614 m -240.93304,6.64104 c 28.67046,28.27136 86.92069,9.8559 122.62222,9.84703 35.57991,-0.009 93.20808,18.2096 122.66751,-9.82062 m -249.29143,6.50339 c 30.61236,26.0189 91.9405,5.85932 126.67118,5.85652 34.59349,-0.003 95.25189,19.96634 126.51612,-5.69617 m -256.64994,6.39935 c 32.1477,23.59114 96.90019,1.44259 130.1946,1.44246 33.12685,-1.3e-4 97.18158,21.95312 129.82514,-1.17032"
       style="fill:none;fill-opacity:0.75;fill-rule:evenodd;stroke:#000000;stroke-width:1.54832518;stroke-linecap:butt;stroke-linejoin:miter;stroke-miterlimit:4;stroke-dasharray:none;stroke-opacity:1"
       id="path9832"
       inkscape:connector-curvature="0" />
    <path
       style="font-style:normal;font-weight:normal;font-size:medium;line-height:125%;font-family:sans-serif;text-align:end;letter-spacing:0px;word-spacing:0px;writing-mode:lr-tb;text-anchor:end;fill:#05a000;fill-opacity:1;stroke:#05a000;stroke-width:1.87500012;stroke-linecap:butt;stroke-linejoin:miter;stroke-miterlimit:4;stroke-dasharray:none;stroke-opacity:1"
       d="m 427.7094,298.929 c 0.64486,-5.29718 0.98828,-10.82316 0.98828,-16.60742 0,-27.7102 -7.35807,-49.7844 -22.07422,-66.22265 -14.71615,-16.51653 -34.36426,-24.77539 -58.94336,-24.77539 -24.65739,0 -45.60205,14.89557 -60.39648,31.41211 -6.25503,7.68205 -7.91085,11.80123 -13.99414,17.73828 -8.74475,8.53455 -17.01292,8.13646 -12.87695,27.90234 0.12848,0.61404 1.03712,0.76721 1.62304,1.15234 0,0 2.9215,15.32524 10.32813,17.80274 7.40662,2.47751 10.45117,-9.2168 10.45117,-9.2168 7.24272,-22.87669 10.13658,-34.17813 20.23437,-47.01562 10.17606,-12.83749 27.40983,-20.51954 44.63086,-20.51954 17.22103,0 30.84182,6.41837 40.86133,19.25586 10.09779,12.83749 15.14649,30.33382 15.14649,52.48633 0,5.86535 -0.36911,11.39421 -1.08204,16.60742 M 290.6321,303.47469 C 289.60393,267.054 289.60393,267.054 289.60393,267.054 c 0,0 -6.75275,17.93756 -9.20703,31.875"
       id="path4151-3"
       inkscape:connector-curvature="0" />
    <ellipse
       ry="5.267756"
       rx="4.7626801"
       cy="260.97299"
       cx="270.98932"
       id="path4155"
       style="font-style:normal;font-weight:normal;font-size:medium;line-height:125%;font-family:sans-serif;text-align:end;letter-spacing:0px;word-spacing:0px;writing-mode:lr-tb;text-anchor:end;fill:#000000;fill-opacity:1;stroke:#000000;stroke-width:0.88154316;stroke-linecap:round;stroke-linejoin:miter;stroke-miterlimit:4;stroke-dasharray:0.88154317, 1.76308634;stroke-dashoffset:0;stroke-opacity:1" />
  </g>
</svg>
