<?xml version="1.0" encoding="utf-8"?>
<!-- Generator: Adobe Illustrator 17.0.2, SVG Export Plug-In . SVG Version: 6.00 Build 0)  -->
<!DOCTYPE svg PUBLIC "-//W3C//DTD SVG 1.1//EN" "http://www.w3.org/Graphics/SVG/1.1/DTD/svg11.dtd">
<svg version="1.1" id="Layer_1" xmlns="http://www.w3.org/2000/svg" xmlns:xlink="http://www.w3.org/1999/xlink" x="0px" y="0px"
	 width="408.721px" height="152.695px" viewBox="0 0 408.721 152.695" enable-background="new 0 0 408.721 152.695"
	 xml:space="preserve">
<path fill="#17406C" d="M109.85,28.036c-31.71,0-33.315,21.801-33.315,26.171v92.348l10.183-7.779l0.12-7.376v-21.346
	c7.086,2.358,14.432,3.554,21.848,3.554c17.322,0,37.97-7.278,37.97-41.952C146.655,33.705,123.599,28.036,109.85,28.036z
	 M108.685,103.638c-7.894,0-15.443-1.426-21.848-4.117V53.875c0-3.761,1.66-16.037,23.013-16.037c6.513,0,26.341,0,26.341,33.648
	C136.191,93.722,127.704,103.638,108.685,103.638z"/>
<polygon fill="#17406C" points="157.164,7.727 157.164,111.733 167.636,111.733 167.636,0 157.291,7.636 "/>
<path fill="#17406C" d="M207.892,27.653c-10.551,0-19.423,2.427-23.768,3.874l-0.735,0.248v10.219l1.417-0.434
	c2.929-0.895,11.848-3.605,22.592-3.605c16.96,0,25.064,7.328,25.481,23.038c-3.531-0.634-9.186-1.437-18.174-1.437
	c-35.771,0-39.628,19-39.628,27.165c0,24.915,28.855,26.176,34.643,26.176c7.895,0,33.649-1.864,33.649-25.837V62.467
	C243.369,39.043,231.768,27.653,207.892,27.653z M213.71,69.365c6.893,0,13.405,0.453,19.355,1.34V87.06
	c0,14.093-14.623,16.2-23.346,16.2c-7.32,0-24.34-1.613-24.34-16.539C185.38,71.054,205.187,69.365,213.71,69.365z"/>
<path fill="#17406C" d="M391.245,70.777c0-10.115-2.583-43.124-35.809-43.124c-13.078,0-22.929,4.931-29.267,14.648
	c-5.232,8.016-6.964,17.637-7.495,24.402h-10.568l-5.068,9.566h15.589c0.64,9.807,3.38,17.853,8.159,23.918
	c6.646,8.438,17.068,12.71,30.975,12.71c10.086,0,20.315-1.96,27.377-5.25l0.628-0.29V96.354l-1.606,0.888
	c-6.278,3.452-15.897,5.517-25.735,5.517c-16.653,0-25.777-6.826-27.909-20.936c-0.687-1.637-1.121-3.488-1.326-5.65h60.824
	l1.074-0.043l-0.005-1.024C391.125,74.778,391.245,73.909,391.245,70.777z M380.587,66.703h-51.429
	c1.123-19.024,10.037-29.078,25.777-29.078C378.088,37.625,380.369,61.139,380.587,66.703z"/>
<path fill="#17406C" d="M317.335,96.802l0.204-0.815l-0.675,0.484c-0.019,0.012-1.533,1.073-4.177,2.232
	c-7.001,2.765-14.654,4.225-22.127,4.225c-20.001,0-29.319-10.375-29.319-32.652c0-22.275,9.318-32.65,29.319-32.65
	c7.068,0,14.752,1.471,22.224,4.254l1.461,0.543V32.126l-0.719-0.26c-8.178-2.903-16.186-4.376-23.792-4.376
	c-17.702,0-38.802,7.424-38.802,42.785c0,35.363,21.1,42.785,38.802,42.785c5.45,0,11.039-0.725,16.609-2.154
	c0.049-0.012,0.091-0.023,0.091-0.023c0.863-0.224,1.764-0.478,2.759-0.779c0.706-0.217,1.369-0.44,2.033-0.669
	c0.32-0.11,0.641-0.205,0.961-0.308c0.452-0.14,0.91-0.283,1.358-0.453l0.7-0.271v-0.085c4.804-1.944,7.822-3.851,7.853-3.869
	l0.422-0.266l-0.429-0.259C320.305,102.855,317.372,97.404,317.335,96.802z"/>
<polygon fill="#3399D5" points="72.513,29.933 72.869,29.442 60.053,29.442 40.12,57.405 39.994,57.586 46.096,66.309 "/>
<polygon fill="#17406C" points="42.088,70.817 13.234,29.576 13.141,29.442 0.839,29.442 30.364,70.406 0.355,111.707 0,112.195 
	12.587,112.195 41.961,70.997 "/>
<path fill="#3399D5" d="M61.413,95.839c-5.561-7.586-10.447-14.279-14.934-20.477l-0.251-0.345l-6.005,8.334l20.569,28.717
	l0.091,0.127H73.37l-1.249-1.714C68.568,105.605,64.992,100.723,61.413,95.839z"/>
<g>
	<g>
		<path fill="#3399D5" d="M159.677,122.94c-4.324,0-5.238,3.104-5.238,5.717v0.906h-2.511v2.511h2.511v14.385h2.705v-14.385h4.701
			v-2.511h-4.701v-0.906c0-3.144,1.483-3.144,2.796-3.144c0.473,0,0.924,0.054,1.341,0.143l0.656,0.167v-2.53l-0.388-0.107
			C160.926,123.019,160.298,122.94,159.677,122.94z"/>
		<g>
			<rect x="167.996" y="124.212" fill="#3399D5" width="2.863" height="3.475"/>
			<rect x="168.093" y="129.563" fill="#3399D5" width="2.675" height="16.896"/>
		</g>
	</g>
	<path fill="#3399D5" d="M186.117,129.267c-3.458,0-6.264,1.353-7.047,1.757l-0.279,0.154v15.281h2.664v-13.642
		c1.534-0.566,3.041-0.854,4.49-0.854c3.664,0,4.132,1.96,4.132,3.649v10.847h2.705v-10.847
		C192.781,131.521,190.406,129.267,186.117,129.267z"/>
	<path fill="#3399D5" d="M211.073,129.849c-1.255-0.363-2.591-0.547-3.977-0.547c-3.55,0-7.776,1.478-7.776,8.558
		c0,7.71,4.73,8.866,7.548,8.866c6.534,0,6.871-4.552,6.871-5.465v-17.8h-2.665v6.388H211.073z M206.867,144.16
		c-2.081,0-4.844-0.663-4.844-6.3c0-4.137,1.564-5.99,5.073-5.99c1.37,0,2.734,0.246,3.977,0.713v8.746
		C211.073,143.132,209.544,144.16,206.867,144.16z"/>
	<path fill="#3399D5" d="M239.321,142.277l-1.169-3.046c-1.181-3.106-2.363-6.209-3.515-9.313l-0.125-0.355h-2.921l6.367,16.354
		c-0.137,0.297-0.279,0.623-0.422,0.946c-0.826,1.969-1.494,3.271-3.035,3.271c-0.331,0-0.861-0.131-1.107-0.245l-0.777-0.39v2.729
		l0.343,0.127c0.4,0.169,1.051,0.34,1.701,0.34c2.374,0,4.164-1.58,5.329-4.685l6.891-18.447h-2.869L239.321,142.277z"/>
	<path fill="#3399D5" d="M257.19,129.267c-2.966,0-7.948,1.142-7.948,8.719c0,7.599,4.983,8.739,7.948,8.739
		c2.961,0,7.949-1.14,7.949-8.739C265.139,130.409,260.152,129.267,257.19,129.267z M262.468,137.987
		c0,4.212-1.677,6.173-5.278,6.173c-3.599,0-5.272-1.962-5.272-6.173c0-4.191,1.673-6.15,5.272-6.15
		C260.837,131.836,262.468,133.747,262.468,137.987z"/>
	<path fill="#3399D5" d="M282.53,139.403c0,3.142-1.449,4.677-4.428,4.677c-3.024,0-4.422-1.496-4.422-4.677v-9.907h-2.705v9.798
		c0,4.65,2.596,7.326,7.126,7.326c4.53,0,7.132-2.675,7.132-7.326v-9.798h-2.705v9.907H282.53z"/>
	<path fill="#3399D5" d="M291.994,130.843l-0.331,0.136v15.48h2.676v-13.674c1.317-0.367,3.189-0.791,5.317-0.841l0.519-0.015
		v-2.626h-0.537C295.85,129.331,292.827,130.489,291.994,130.843z"/>
	<path fill="#3399D5" d="M321.006,129.267c-3.446,0-6.252,1.353-7.04,1.757l-0.286,0.154v15.281h2.67v-13.642
		c1.535-0.566,3.046-0.854,4.496-0.854c3.664,0,4.126,1.96,4.126,3.649v10.847h2.704v-10.847
		C327.675,131.521,325.307,129.267,321.006,129.267z"/>
	<path fill="#3399D5" d="M351.163,129.267c-3.452,0-6.264,1.353-7.041,1.757l-0.286,0.154v15.281h2.672v-13.642
		c1.528-0.566,3.04-0.854,4.49-0.854c3.657,0,4.126,1.96,4.126,3.649v10.847h2.705v-10.847
		C357.828,131.521,355.459,129.267,351.163,129.267z"/>
	<path fill="#3399D5" d="M378.456,129.302c-1.996,0-3.686,0.416-4.759,0.776l-0.376,0.118v2.677l0.69-0.206
		c0.56-0.171,2.265-0.704,4.354-0.704c3.012,0,4.461,1.184,4.655,3.821c-0.662-0.086-1.7-0.217-3.228-0.217
		c-1.895,0-8.103,0.411-8.103,5.667c0,4.021,3.685,5.46,7.12,5.46c1.631,0,6.938-0.388,6.938-5.398v-4.827
		C385.748,131.711,383.294,129.302,378.456,129.302z M383.077,138.358v2.937c0,2.362-2.316,2.865-4.267,2.865
		c-1.661,0-4.451-0.387-4.451-2.927c0-2.795,3.664-3.1,5.238-3.1C381.195,138.133,382.371,138.271,383.077,138.358z"/>
	<g>
		<path fill="#3399D5" d="M364.239,147.297c0,2.094-0.748,2.836-2.858,2.836h-0.531v2.561h0.531c2.379,0,5.535-0.622,5.535-5.99
			v-17.141h-2.676L364.239,147.297L364.239,147.297z"/>
		<rect x="364.143" y="124.212" fill="#3399D5" width="2.863" height="3.475"/>
	</g>
	<g>
		<rect x="334.59" y="129.563" fill="#3399D5" width="2.67" height="16.896"/>
		<rect x="334.493" y="124.212" fill="#3399D5" width="2.864" height="3.475"/>
	</g>
</g>
<g enable-background="new">
	<path fill="#3399D5" d="M408.721,35.644c0,4.325-3.396,7.721-7.813,7.721c-4.372,0-7.86-3.396-7.86-7.721
		c0-4.231,3.488-7.627,7.86-7.627C405.326,28.017,408.721,31.413,408.721,35.644z M395.001,35.644c0,3.396,2.511,6.093,5.953,6.093
		c3.349,0,5.813-2.697,5.813-6.046c0-3.396-2.465-6.14-5.86-6.14S395.001,32.296,395.001,35.644z M399.699,39.644h-1.768v-7.627
		c0.697-0.14,1.675-0.233,2.93-0.233c1.442,0,2.094,0.233,2.651,0.559c0.419,0.325,0.744,0.93,0.744,1.674
		c0,0.838-0.651,1.488-1.581,1.768v0.094c0.744,0.278,1.162,0.837,1.396,1.859c0.232,1.163,0.372,1.628,0.558,1.907h-1.907
		c-0.232-0.279-0.372-0.977-0.604-1.86c-0.14-0.837-0.604-1.209-1.581-1.209h-0.837V39.644z M399.745,35.319h0.838
		c0.977,0,1.767-0.325,1.767-1.116c0-0.697-0.511-1.163-1.627-1.163c-0.466,0-0.791,0.047-0.978,0.094V35.319z"/>
</g>
</svg>
